<mxfile host="app.diagrams.net" modified="2023-11-26T15:27:09.138Z" agent="Mozilla/5.0 (Windows NT 10.0; Win64; x64) AppleWebKit/537.36 (KHTML, like Gecko) Chrome/119.0.0.0 Safari/537.36" etag="skbk4MZlRXgZ8a6TLygj" version="22.1.4" type="device">
  <diagram id="C5RBs43oDa-KdzZeNtuy" name="Page-1">
    <mxGraphModel dx="1120" dy="1647" grid="1" gridSize="10" guides="1" tooltips="1" connect="1" arrows="1" fold="1" page="1" pageScale="1" pageWidth="827" pageHeight="1169" math="0" shadow="0">
      <root>
        <mxCell id="WIyWlLk6GJQsqaUBKTNV-0" />
        <mxCell id="WIyWlLk6GJQsqaUBKTNV-1" parent="WIyWlLk6GJQsqaUBKTNV-0" />
        <mxCell id="I5L11TQ9YULdxDRJMKCq-0" value="" style="edgeStyle=orthogonalEdgeStyle;rounded=0;orthogonalLoop=1;jettySize=auto;html=1;" edge="1" parent="WIyWlLk6GJQsqaUBKTNV-1" source="I5L11TQ9YULdxDRJMKCq-3" target="I5L11TQ9YULdxDRJMKCq-24">
          <mxGeometry relative="1" as="geometry" />
        </mxCell>
        <mxCell id="I5L11TQ9YULdxDRJMKCq-1" style="edgeStyle=orthogonalEdgeStyle;rounded=0;orthogonalLoop=1;jettySize=auto;html=1;entryX=0;entryY=0.5;entryDx=0;entryDy=0;" edge="1" parent="WIyWlLk6GJQsqaUBKTNV-1" source="I5L11TQ9YULdxDRJMKCq-3" target="I5L11TQ9YULdxDRJMKCq-34">
          <mxGeometry relative="1" as="geometry">
            <Array as="points">
              <mxPoint x="90" y="440" />
            </Array>
          </mxGeometry>
        </mxCell>
        <mxCell id="I5L11TQ9YULdxDRJMKCq-2" style="edgeStyle=orthogonalEdgeStyle;rounded=0;orthogonalLoop=1;jettySize=auto;html=1;" edge="1" parent="WIyWlLk6GJQsqaUBKTNV-1" source="I5L11TQ9YULdxDRJMKCq-3">
          <mxGeometry relative="1" as="geometry">
            <mxPoint x="90" y="630" as="targetPoint" />
          </mxGeometry>
        </mxCell>
        <mxCell id="I5L11TQ9YULdxDRJMKCq-3" value="start" style="ellipse;whiteSpace=wrap;html=1;" vertex="1" parent="WIyWlLk6GJQsqaUBKTNV-1">
          <mxGeometry x="30" y="240" width="120" height="80" as="geometry" />
        </mxCell>
        <mxCell id="I5L11TQ9YULdxDRJMKCq-4" value="" style="edgeStyle=orthogonalEdgeStyle;rounded=0;orthogonalLoop=1;jettySize=auto;html=1;" edge="1" parent="WIyWlLk6GJQsqaUBKTNV-1" source="I5L11TQ9YULdxDRJMKCq-13" target="I5L11TQ9YULdxDRJMKCq-8">
          <mxGeometry relative="1" as="geometry" />
        </mxCell>
        <mxCell id="I5L11TQ9YULdxDRJMKCq-5" value="prime(a)" style="shape=parallelogram;perimeter=parallelogramPerimeter;whiteSpace=wrap;html=1;fixedSize=1;" vertex="1" parent="WIyWlLk6GJQsqaUBKTNV-1">
          <mxGeometry x="30" y="40" width="120" height="60" as="geometry" />
        </mxCell>
        <mxCell id="I5L11TQ9YULdxDRJMKCq-6" value="" style="edgeStyle=orthogonalEdgeStyle;rounded=0;orthogonalLoop=1;jettySize=auto;html=1;" edge="1" parent="WIyWlLk6GJQsqaUBKTNV-1" source="I5L11TQ9YULdxDRJMKCq-8">
          <mxGeometry relative="1" as="geometry">
            <mxPoint x="390" y="70" as="targetPoint" />
          </mxGeometry>
        </mxCell>
        <mxCell id="I5L11TQ9YULdxDRJMKCq-7" style="edgeStyle=orthogonalEdgeStyle;rounded=0;orthogonalLoop=1;jettySize=auto;html=1;entryX=0.5;entryY=0;entryDx=0;entryDy=0;" edge="1" parent="WIyWlLk6GJQsqaUBKTNV-1" source="I5L11TQ9YULdxDRJMKCq-8" target="I5L11TQ9YULdxDRJMKCq-18">
          <mxGeometry relative="1" as="geometry">
            <Array as="points">
              <mxPoint x="310" y="-30" />
              <mxPoint x="770" y="-30" />
            </Array>
          </mxGeometry>
        </mxCell>
        <mxCell id="I5L11TQ9YULdxDRJMKCq-8" value="i&amp;lt;sqrt(n)" style="rhombus;whiteSpace=wrap;html=1;" vertex="1" parent="WIyWlLk6GJQsqaUBKTNV-1">
          <mxGeometry x="270" y="30" width="80" height="80" as="geometry" />
        </mxCell>
        <mxCell id="I5L11TQ9YULdxDRJMKCq-9" value="" style="edgeStyle=orthogonalEdgeStyle;rounded=0;orthogonalLoop=1;jettySize=auto;html=1;" edge="1" parent="WIyWlLk6GJQsqaUBKTNV-1" source="I5L11TQ9YULdxDRJMKCq-11" target="I5L11TQ9YULdxDRJMKCq-14">
          <mxGeometry relative="1" as="geometry" />
        </mxCell>
        <mxCell id="I5L11TQ9YULdxDRJMKCq-10" style="edgeStyle=orthogonalEdgeStyle;rounded=0;orthogonalLoop=1;jettySize=auto;html=1;entryX=0.5;entryY=1;entryDx=0;entryDy=0;" edge="1" parent="WIyWlLk6GJQsqaUBKTNV-1" source="I5L11TQ9YULdxDRJMKCq-11" target="I5L11TQ9YULdxDRJMKCq-8">
          <mxGeometry relative="1" as="geometry">
            <Array as="points">
              <mxPoint x="430" y="170" />
              <mxPoint x="310" y="170" />
            </Array>
          </mxGeometry>
        </mxCell>
        <mxCell id="I5L11TQ9YULdxDRJMKCq-11" value="n%i == 0" style="rhombus;whiteSpace=wrap;html=1;" vertex="1" parent="WIyWlLk6GJQsqaUBKTNV-1">
          <mxGeometry x="390" y="30" width="80" height="80" as="geometry" />
        </mxCell>
        <mxCell id="I5L11TQ9YULdxDRJMKCq-12" value="" style="edgeStyle=orthogonalEdgeStyle;rounded=0;orthogonalLoop=1;jettySize=auto;html=1;" edge="1" parent="WIyWlLk6GJQsqaUBKTNV-1" source="I5L11TQ9YULdxDRJMKCq-5" target="I5L11TQ9YULdxDRJMKCq-13">
          <mxGeometry relative="1" as="geometry">
            <mxPoint x="140" y="70" as="sourcePoint" />
            <mxPoint x="250" y="70" as="targetPoint" />
          </mxGeometry>
        </mxCell>
        <mxCell id="I5L11TQ9YULdxDRJMKCq-13" value="i = 2;" style="rounded=1;whiteSpace=wrap;html=1;" vertex="1" parent="WIyWlLk6GJQsqaUBKTNV-1">
          <mxGeometry x="170" y="40" width="60" height="60" as="geometry" />
        </mxCell>
        <mxCell id="I5L11TQ9YULdxDRJMKCq-14" value="return false;&lt;br&gt;" style="whiteSpace=wrap;html=1;" vertex="1" parent="WIyWlLk6GJQsqaUBKTNV-1">
          <mxGeometry x="530" y="40" width="120" height="60" as="geometry" />
        </mxCell>
        <mxCell id="I5L11TQ9YULdxDRJMKCq-15" value="true" style="text;html=1;strokeColor=none;fillColor=none;align=center;verticalAlign=middle;whiteSpace=wrap;rounded=0;" vertex="1" parent="WIyWlLk6GJQsqaUBKTNV-1">
          <mxGeometry x="460" y="40" width="60" height="30" as="geometry" />
        </mxCell>
        <mxCell id="I5L11TQ9YULdxDRJMKCq-16" value="false" style="text;html=1;strokeColor=none;fillColor=none;align=center;verticalAlign=middle;whiteSpace=wrap;rounded=0;" vertex="1" parent="WIyWlLk6GJQsqaUBKTNV-1">
          <mxGeometry x="340" y="140" width="60" height="30" as="geometry" />
        </mxCell>
        <mxCell id="I5L11TQ9YULdxDRJMKCq-17" value="true" style="text;html=1;strokeColor=none;fillColor=none;align=center;verticalAlign=middle;whiteSpace=wrap;rounded=0;" vertex="1" parent="WIyWlLk6GJQsqaUBKTNV-1">
          <mxGeometry x="340" y="40" width="60" height="30" as="geometry" />
        </mxCell>
        <mxCell id="I5L11TQ9YULdxDRJMKCq-18" value="return true" style="rounded=0;whiteSpace=wrap;html=1;" vertex="1" parent="WIyWlLk6GJQsqaUBKTNV-1">
          <mxGeometry x="710" y="40" width="120" height="60" as="geometry" />
        </mxCell>
        <mxCell id="I5L11TQ9YULdxDRJMKCq-19" value="" style="edgeStyle=orthogonalEdgeStyle;rounded=0;orthogonalLoop=1;jettySize=auto;html=1;" edge="1" parent="WIyWlLk6GJQsqaUBKTNV-1" source="I5L11TQ9YULdxDRJMKCq-22" target="I5L11TQ9YULdxDRJMKCq-21">
          <mxGeometry relative="1" as="geometry" />
        </mxCell>
        <mxCell id="I5L11TQ9YULdxDRJMKCq-20" value="" style="edgeStyle=orthogonalEdgeStyle;rounded=0;orthogonalLoop=1;jettySize=auto;html=1;" edge="1" parent="WIyWlLk6GJQsqaUBKTNV-1" source="I5L11TQ9YULdxDRJMKCq-21" target="I5L11TQ9YULdxDRJMKCq-26">
          <mxGeometry relative="1" as="geometry" />
        </mxCell>
        <mxCell id="I5L11TQ9YULdxDRJMKCq-21" value="i&amp;lt;n" style="rhombus;whiteSpace=wrap;html=1;" vertex="1" parent="WIyWlLk6GJQsqaUBKTNV-1">
          <mxGeometry x="510" y="240" width="80" height="80" as="geometry" />
        </mxCell>
        <mxCell id="I5L11TQ9YULdxDRJMKCq-22" value="i = 0" style="rounded=1;whiteSpace=wrap;html=1;" vertex="1" parent="WIyWlLk6GJQsqaUBKTNV-1">
          <mxGeometry x="410" y="250" width="60" height="60" as="geometry" />
        </mxCell>
        <mxCell id="I5L11TQ9YULdxDRJMKCq-23" value="" style="edgeStyle=orthogonalEdgeStyle;rounded=0;orthogonalLoop=1;jettySize=auto;html=1;" edge="1" parent="WIyWlLk6GJQsqaUBKTNV-1" source="I5L11TQ9YULdxDRJMKCq-24" target="I5L11TQ9YULdxDRJMKCq-22">
          <mxGeometry relative="1" as="geometry" />
        </mxCell>
        <mxCell id="I5L11TQ9YULdxDRJMKCq-24" value="input n" style="shape=parallelogram;perimeter=parallelogramPerimeter;whiteSpace=wrap;html=1;fixedSize=1;" vertex="1" parent="WIyWlLk6GJQsqaUBKTNV-1">
          <mxGeometry x="230" y="250" width="120" height="60" as="geometry" />
        </mxCell>
        <mxCell id="I5L11TQ9YULdxDRJMKCq-25" value="" style="edgeStyle=orthogonalEdgeStyle;rounded=0;orthogonalLoop=1;jettySize=auto;html=1;" edge="1" parent="WIyWlLk6GJQsqaUBKTNV-1" source="I5L11TQ9YULdxDRJMKCq-26" target="I5L11TQ9YULdxDRJMKCq-28">
          <mxGeometry relative="1" as="geometry" />
        </mxCell>
        <mxCell id="I5L11TQ9YULdxDRJMKCq-26" value="input a[i]" style="shape=parallelogram;perimeter=parallelogramPerimeter;whiteSpace=wrap;html=1;fixedSize=1;" vertex="1" parent="WIyWlLk6GJQsqaUBKTNV-1">
          <mxGeometry x="650" y="250" width="120" height="60" as="geometry" />
        </mxCell>
        <mxCell id="I5L11TQ9YULdxDRJMKCq-27" style="edgeStyle=orthogonalEdgeStyle;rounded=0;orthogonalLoop=1;jettySize=auto;html=1;entryX=0.5;entryY=0;entryDx=0;entryDy=0;" edge="1" parent="WIyWlLk6GJQsqaUBKTNV-1" source="I5L11TQ9YULdxDRJMKCq-28" target="I5L11TQ9YULdxDRJMKCq-21">
          <mxGeometry relative="1" as="geometry">
            <Array as="points">
              <mxPoint x="910" y="170" />
              <mxPoint x="550" y="170" />
            </Array>
          </mxGeometry>
        </mxCell>
        <mxCell id="I5L11TQ9YULdxDRJMKCq-28" value="i++" style="whiteSpace=wrap;html=1;" vertex="1" parent="WIyWlLk6GJQsqaUBKTNV-1">
          <mxGeometry x="850" y="250" width="120" height="60" as="geometry" />
        </mxCell>
        <mxCell id="I5L11TQ9YULdxDRJMKCq-29" value="" style="edgeStyle=orthogonalEdgeStyle;rounded=0;orthogonalLoop=1;jettySize=auto;html=1;" edge="1" parent="WIyWlLk6GJQsqaUBKTNV-1" source="I5L11TQ9YULdxDRJMKCq-32" target="I5L11TQ9YULdxDRJMKCq-31">
          <mxGeometry relative="1" as="geometry" />
        </mxCell>
        <mxCell id="I5L11TQ9YULdxDRJMKCq-30" value="" style="edgeStyle=orthogonalEdgeStyle;rounded=0;orthogonalLoop=1;jettySize=auto;html=1;" edge="1" parent="WIyWlLk6GJQsqaUBKTNV-1" source="I5L11TQ9YULdxDRJMKCq-31" target="I5L11TQ9YULdxDRJMKCq-36">
          <mxGeometry relative="1" as="geometry" />
        </mxCell>
        <mxCell id="I5L11TQ9YULdxDRJMKCq-31" value="i&amp;lt;m" style="rhombus;whiteSpace=wrap;html=1;" vertex="1" parent="WIyWlLk6GJQsqaUBKTNV-1">
          <mxGeometry x="510" y="400" width="80" height="80" as="geometry" />
        </mxCell>
        <mxCell id="I5L11TQ9YULdxDRJMKCq-32" value="i = 0" style="rounded=1;whiteSpace=wrap;html=1;" vertex="1" parent="WIyWlLk6GJQsqaUBKTNV-1">
          <mxGeometry x="410" y="410" width="60" height="60" as="geometry" />
        </mxCell>
        <mxCell id="I5L11TQ9YULdxDRJMKCq-33" value="" style="edgeStyle=orthogonalEdgeStyle;rounded=0;orthogonalLoop=1;jettySize=auto;html=1;" edge="1" parent="WIyWlLk6GJQsqaUBKTNV-1" source="I5L11TQ9YULdxDRJMKCq-34" target="I5L11TQ9YULdxDRJMKCq-32">
          <mxGeometry relative="1" as="geometry" />
        </mxCell>
        <mxCell id="I5L11TQ9YULdxDRJMKCq-34" value="input m" style="shape=parallelogram;perimeter=parallelogramPerimeter;whiteSpace=wrap;html=1;fixedSize=1;" vertex="1" parent="WIyWlLk6GJQsqaUBKTNV-1">
          <mxGeometry x="230" y="410" width="120" height="60" as="geometry" />
        </mxCell>
        <mxCell id="I5L11TQ9YULdxDRJMKCq-35" value="" style="edgeStyle=orthogonalEdgeStyle;rounded=0;orthogonalLoop=1;jettySize=auto;html=1;" edge="1" parent="WIyWlLk6GJQsqaUBKTNV-1" source="I5L11TQ9YULdxDRJMKCq-36" target="I5L11TQ9YULdxDRJMKCq-39">
          <mxGeometry relative="1" as="geometry" />
        </mxCell>
        <mxCell id="I5L11TQ9YULdxDRJMKCq-36" value="input b[i]" style="shape=parallelogram;perimeter=parallelogramPerimeter;whiteSpace=wrap;html=1;fixedSize=1;" vertex="1" parent="WIyWlLk6GJQsqaUBKTNV-1">
          <mxGeometry x="650" y="410" width="120" height="60" as="geometry" />
        </mxCell>
        <mxCell id="I5L11TQ9YULdxDRJMKCq-37" style="edgeStyle=orthogonalEdgeStyle;rounded=0;orthogonalLoop=1;jettySize=auto;html=1;entryX=0.5;entryY=0;entryDx=0;entryDy=0;" edge="1" parent="WIyWlLk6GJQsqaUBKTNV-1" source="I5L11TQ9YULdxDRJMKCq-39" target="I5L11TQ9YULdxDRJMKCq-31">
          <mxGeometry relative="1" as="geometry">
            <Array as="points">
              <mxPoint x="910" y="330" />
              <mxPoint x="550" y="330" />
            </Array>
          </mxGeometry>
        </mxCell>
        <mxCell id="I5L11TQ9YULdxDRJMKCq-38" value="" style="edgeStyle=orthogonalEdgeStyle;rounded=0;orthogonalLoop=1;jettySize=auto;html=1;" edge="1" parent="WIyWlLk6GJQsqaUBKTNV-1" source="I5L11TQ9YULdxDRJMKCq-39" target="I5L11TQ9YULdxDRJMKCq-54">
          <mxGeometry relative="1" as="geometry" />
        </mxCell>
        <mxCell id="I5L11TQ9YULdxDRJMKCq-39" value="i++" style="whiteSpace=wrap;html=1;" vertex="1" parent="WIyWlLk6GJQsqaUBKTNV-1">
          <mxGeometry x="850" y="410" width="120" height="60" as="geometry" />
        </mxCell>
        <mxCell id="I5L11TQ9YULdxDRJMKCq-40" value="" style="edgeStyle=orthogonalEdgeStyle;rounded=0;orthogonalLoop=1;jettySize=auto;html=1;" edge="1" parent="WIyWlLk6GJQsqaUBKTNV-1" source="I5L11TQ9YULdxDRJMKCq-43" target="I5L11TQ9YULdxDRJMKCq-42">
          <mxGeometry relative="1" as="geometry" />
        </mxCell>
        <mxCell id="I5L11TQ9YULdxDRJMKCq-41" value="" style="edgeStyle=orthogonalEdgeStyle;rounded=0;orthogonalLoop=1;jettySize=auto;html=1;" edge="1" parent="WIyWlLk6GJQsqaUBKTNV-1" source="I5L11TQ9YULdxDRJMKCq-42">
          <mxGeometry relative="1" as="geometry">
            <mxPoint x="1290" y="280" as="targetPoint" />
          </mxGeometry>
        </mxCell>
        <mxCell id="I5L11TQ9YULdxDRJMKCq-42" value="i&amp;lt;n" style="rhombus;whiteSpace=wrap;html=1;" vertex="1" parent="WIyWlLk6GJQsqaUBKTNV-1">
          <mxGeometry x="1140" y="240" width="80" height="80" as="geometry" />
        </mxCell>
        <mxCell id="I5L11TQ9YULdxDRJMKCq-43" value="i = 0" style="rounded=1;whiteSpace=wrap;html=1;" vertex="1" parent="WIyWlLk6GJQsqaUBKTNV-1">
          <mxGeometry x="1040" y="250" width="60" height="60" as="geometry" />
        </mxCell>
        <mxCell id="I5L11TQ9YULdxDRJMKCq-44" value="" style="edgeStyle=orthogonalEdgeStyle;rounded=0;orthogonalLoop=1;jettySize=auto;html=1;" edge="1" parent="WIyWlLk6GJQsqaUBKTNV-1" target="I5L11TQ9YULdxDRJMKCq-43">
          <mxGeometry relative="1" as="geometry">
            <mxPoint x="970" y="280.00000000000006" as="sourcePoint" />
          </mxGeometry>
        </mxCell>
        <mxCell id="I5L11TQ9YULdxDRJMKCq-45" style="edgeStyle=orthogonalEdgeStyle;rounded=0;orthogonalLoop=1;jettySize=auto;html=1;entryX=0.5;entryY=0;entryDx=0;entryDy=0;" edge="1" parent="WIyWlLk6GJQsqaUBKTNV-1" source="I5L11TQ9YULdxDRJMKCq-46" target="I5L11TQ9YULdxDRJMKCq-42">
          <mxGeometry relative="1" as="geometry">
            <Array as="points">
              <mxPoint x="1630" y="170" />
              <mxPoint x="1180" y="170" />
            </Array>
          </mxGeometry>
        </mxCell>
        <mxCell id="I5L11TQ9YULdxDRJMKCq-46" value="i++&lt;br&gt;count1++" style="whiteSpace=wrap;html=1;" vertex="1" parent="WIyWlLk6GJQsqaUBKTNV-1">
          <mxGeometry x="1570" y="250" width="120" height="60" as="geometry" />
        </mxCell>
        <mxCell id="I5L11TQ9YULdxDRJMKCq-47" value="" style="edgeStyle=orthogonalEdgeStyle;rounded=0;orthogonalLoop=1;jettySize=auto;html=1;" edge="1" parent="WIyWlLk6GJQsqaUBKTNV-1" source="I5L11TQ9YULdxDRJMKCq-48">
          <mxGeometry relative="1" as="geometry">
            <mxPoint x="1400" y="280.0588235294117" as="targetPoint" />
          </mxGeometry>
        </mxCell>
        <mxCell id="I5L11TQ9YULdxDRJMKCq-48" value="prime(a[i])" style="rhombus;whiteSpace=wrap;html=1;" vertex="1" parent="WIyWlLk6GJQsqaUBKTNV-1">
          <mxGeometry x="1290" y="240" width="80" height="80" as="geometry" />
        </mxCell>
        <mxCell id="I5L11TQ9YULdxDRJMKCq-49" value="" style="edgeStyle=orthogonalEdgeStyle;rounded=0;orthogonalLoop=1;jettySize=auto;html=1;exitX=1;exitY=0.5;exitDx=0;exitDy=0;" edge="1" parent="WIyWlLk6GJQsqaUBKTNV-1" source="I5L11TQ9YULdxDRJMKCq-50" target="I5L11TQ9YULdxDRJMKCq-46">
          <mxGeometry relative="1" as="geometry">
            <mxPoint x="1520" y="280" as="sourcePoint" />
          </mxGeometry>
        </mxCell>
        <mxCell id="I5L11TQ9YULdxDRJMKCq-50" value="output a[i]" style="shape=parallelogram;perimeter=parallelogramPerimeter;whiteSpace=wrap;html=1;fixedSize=1;" vertex="1" parent="WIyWlLk6GJQsqaUBKTNV-1">
          <mxGeometry x="1390" y="250" width="120" height="60" as="geometry" />
        </mxCell>
        <mxCell id="I5L11TQ9YULdxDRJMKCq-51" value="" style="edgeStyle=orthogonalEdgeStyle;rounded=0;orthogonalLoop=1;jettySize=auto;html=1;" edge="1" parent="WIyWlLk6GJQsqaUBKTNV-1" source="I5L11TQ9YULdxDRJMKCq-54" target="I5L11TQ9YULdxDRJMKCq-53">
          <mxGeometry relative="1" as="geometry" />
        </mxCell>
        <mxCell id="I5L11TQ9YULdxDRJMKCq-52" value="" style="edgeStyle=orthogonalEdgeStyle;rounded=0;orthogonalLoop=1;jettySize=auto;html=1;" edge="1" parent="WIyWlLk6GJQsqaUBKTNV-1" source="I5L11TQ9YULdxDRJMKCq-53">
          <mxGeometry relative="1" as="geometry">
            <mxPoint x="1290" y="440" as="targetPoint" />
          </mxGeometry>
        </mxCell>
        <mxCell id="I5L11TQ9YULdxDRJMKCq-53" value="i&amp;lt;m" style="rhombus;whiteSpace=wrap;html=1;" vertex="1" parent="WIyWlLk6GJQsqaUBKTNV-1">
          <mxGeometry x="1140" y="400" width="80" height="80" as="geometry" />
        </mxCell>
        <mxCell id="I5L11TQ9YULdxDRJMKCq-54" value="i = 0" style="rounded=1;whiteSpace=wrap;html=1;" vertex="1" parent="WIyWlLk6GJQsqaUBKTNV-1">
          <mxGeometry x="1040" y="410" width="60" height="60" as="geometry" />
        </mxCell>
        <mxCell id="I5L11TQ9YULdxDRJMKCq-55" style="edgeStyle=orthogonalEdgeStyle;rounded=0;orthogonalLoop=1;jettySize=auto;html=1;entryX=0.5;entryY=0;entryDx=0;entryDy=0;" edge="1" parent="WIyWlLk6GJQsqaUBKTNV-1" source="I5L11TQ9YULdxDRJMKCq-56" target="I5L11TQ9YULdxDRJMKCq-53">
          <mxGeometry relative="1" as="geometry">
            <Array as="points">
              <mxPoint x="1630" y="330" />
              <mxPoint x="1180" y="330" />
            </Array>
          </mxGeometry>
        </mxCell>
        <mxCell id="I5L11TQ9YULdxDRJMKCq-56" value="i++&lt;br&gt;count2++" style="whiteSpace=wrap;html=1;" vertex="1" parent="WIyWlLk6GJQsqaUBKTNV-1">
          <mxGeometry x="1570" y="410" width="120" height="60" as="geometry" />
        </mxCell>
        <mxCell id="I5L11TQ9YULdxDRJMKCq-57" value="" style="edgeStyle=orthogonalEdgeStyle;rounded=0;orthogonalLoop=1;jettySize=auto;html=1;" edge="1" parent="WIyWlLk6GJQsqaUBKTNV-1" source="I5L11TQ9YULdxDRJMKCq-58">
          <mxGeometry relative="1" as="geometry">
            <mxPoint x="1400" y="440.0588235294117" as="targetPoint" />
          </mxGeometry>
        </mxCell>
        <mxCell id="I5L11TQ9YULdxDRJMKCq-58" value="prime(b[i])" style="rhombus;whiteSpace=wrap;html=1;" vertex="1" parent="WIyWlLk6GJQsqaUBKTNV-1">
          <mxGeometry x="1290" y="400" width="80" height="80" as="geometry" />
        </mxCell>
        <mxCell id="I5L11TQ9YULdxDRJMKCq-59" value="" style="edgeStyle=orthogonalEdgeStyle;rounded=0;orthogonalLoop=1;jettySize=auto;html=1;exitX=1;exitY=0.5;exitDx=0;exitDy=0;" edge="1" parent="WIyWlLk6GJQsqaUBKTNV-1" source="I5L11TQ9YULdxDRJMKCq-60" target="I5L11TQ9YULdxDRJMKCq-56">
          <mxGeometry relative="1" as="geometry">
            <mxPoint x="1520" y="440" as="sourcePoint" />
          </mxGeometry>
        </mxCell>
        <mxCell id="I5L11TQ9YULdxDRJMKCq-60" value="output b[i]" style="shape=parallelogram;perimeter=parallelogramPerimeter;whiteSpace=wrap;html=1;fixedSize=1;" vertex="1" parent="WIyWlLk6GJQsqaUBKTNV-1">
          <mxGeometry x="1390" y="410" width="120" height="60" as="geometry" />
        </mxCell>
        <mxCell id="I5L11TQ9YULdxDRJMKCq-61" value="" style="edgeStyle=orthogonalEdgeStyle;rounded=0;orthogonalLoop=1;jettySize=auto;html=1;" edge="1" parent="WIyWlLk6GJQsqaUBKTNV-1" source="I5L11TQ9YULdxDRJMKCq-63" target="I5L11TQ9YULdxDRJMKCq-64">
          <mxGeometry relative="1" as="geometry" />
        </mxCell>
        <mxCell id="I5L11TQ9YULdxDRJMKCq-62" style="edgeStyle=orthogonalEdgeStyle;rounded=0;orthogonalLoop=1;jettySize=auto;html=1;entryX=0;entryY=0.5;entryDx=0;entryDy=0;" edge="1" parent="WIyWlLk6GJQsqaUBKTNV-1" source="I5L11TQ9YULdxDRJMKCq-63" target="I5L11TQ9YULdxDRJMKCq-65">
          <mxGeometry relative="1" as="geometry">
            <Array as="points">
              <mxPoint x="180" y="730" />
            </Array>
          </mxGeometry>
        </mxCell>
        <mxCell id="I5L11TQ9YULdxDRJMKCq-63" value="count1 &amp;gt; count2" style="rhombus;whiteSpace=wrap;html=1;" vertex="1" parent="WIyWlLk6GJQsqaUBKTNV-1">
          <mxGeometry x="90" y="590" width="180" height="80" as="geometry" />
        </mxCell>
        <mxCell id="I5L11TQ9YULdxDRJMKCq-64" value="output arr1" style="shape=parallelogram;perimeter=parallelogramPerimeter;whiteSpace=wrap;html=1;fixedSize=1;" vertex="1" parent="WIyWlLk6GJQsqaUBKTNV-1">
          <mxGeometry x="330" y="600" width="120" height="60" as="geometry" />
        </mxCell>
        <mxCell id="I5L11TQ9YULdxDRJMKCq-65" value="output ar2" style="shape=parallelogram;perimeter=parallelogramPerimeter;whiteSpace=wrap;html=1;fixedSize=1;" vertex="1" parent="WIyWlLk6GJQsqaUBKTNV-1">
          <mxGeometry x="330" y="700" width="120" height="60" as="geometry" />
        </mxCell>
        <mxCell id="I5L11TQ9YULdxDRJMKCq-66" value="true" style="text;html=1;strokeColor=none;fillColor=none;align=center;verticalAlign=middle;whiteSpace=wrap;rounded=0;" vertex="1" parent="WIyWlLk6GJQsqaUBKTNV-1">
          <mxGeometry x="270" y="600" width="60" height="30" as="geometry" />
        </mxCell>
        <mxCell id="I5L11TQ9YULdxDRJMKCq-67" value="false" style="text;html=1;strokeColor=none;fillColor=none;align=center;verticalAlign=middle;whiteSpace=wrap;rounded=0;" vertex="1" parent="WIyWlLk6GJQsqaUBKTNV-1">
          <mxGeometry x="230" y="690" width="60" height="30" as="geometry" />
        </mxCell>
      </root>
    </mxGraphModel>
  </diagram>
</mxfile>
